C:/Users/Samuel/Documents/FFMPEG/bin/ffmpeg.exe -hide_banner -y -y -r 18 -start_number 0 -start_number_range 1 -i C:/Users/Samuel/Documents/GitHub/Thursday-Morning-Graduatin/assets/shared/images/notes/NoteSplosh/GotShot/gorShot1%04d.png -c:v libvpx-vp9 -b:v 2M C:/Users/Samuel/Documents/GitHub/Thursday-Morning-Graduatin/assets/shared/images/notes/NoteSplosh/GotShot/BulletNote-Animated.webm
=====================================================
Input #0, image2, from 'C:/Users/Samuel/Documents/GitHub/Thursday-Morning-Graduatin/assets/shared/images/notes/NoteSplosh/GotShot/gorShot1%04d.png':
  Duration: 00:00:00.84, start: 0.000000, bitrate: N/A
  Stream #0:0: Video: png, rgba(pc), 260x298 [SAR 2834:2834 DAR 130:149], 25 fps, 25 tbr, 25 tbn
Stream mapping:
  Stream #0:0 -> #0:0 (png (native) -> vp9 (libvpx-vp9))
Press [q] to stop, [?] for help
[libvpx-vp9 @ 0000027e701f0180] v1.13.0-71-g45dc0d34d
Output #0, webm, to 'C:/Users/Samuel/Documents/GitHub/Thursday-Morning-Graduatin/assets/shared/images/notes/NoteSplosh/GotShot/BulletNote-Animated.webm':
  Metadata:
    encoder         : Lavf60.3.100
  Stream #0:0: Video: vp9, yuva420p(tv, progressive), 260x298 [SAR 1:1 DAR 130:149], q=2-31, 2000 kb/s, 18 fps, 1k tbn
    Metadata:
      encoder         : Lavc60.3.100 libvpx-vp9
    Side data:
      cpb: bitrate max/min/avg: 0/0/0 buffer size: 0 vbv_delay: N/A
frame=    0 fps=0.0 q=0.0 size=       0kB time=-577014:32:22.77 bitrate=  -0.0kbits/s speed=N/A    frame=   21 fps=0.0 q=0.0 Lsize=      30kB time=00:00:01.11 bitrate= 223.0kbits/s speed=3.87x    
video:16kB audio:0kB subtitle:0kB other streams:0kB global headers:0kB muxing overhead: 95.031799%
